<mxfile host="app.diagrams.net" modified="2022-10-26T12:23:39.028Z" agent="5.0 (Windows NT 10.0; Win64; x64) AppleWebKit/537.36 (KHTML, like Gecko) Chrome/106.0.0.0 Safari/537.36 Edg/106.0.1370.52" etag="lLeEw-l8daSght-jKOgH" version="20.5.1" type="github">
  <diagram id="TpOZcYtLI7KaRlPRGoSv" name="第 1 页">
    <mxGraphModel dx="1113" dy="1638" grid="1" gridSize="10" guides="1" tooltips="1" connect="1" arrows="1" fold="1" page="1" pageScale="1" pageWidth="827" pageHeight="1169" math="0" shadow="0">
      <root>
        <mxCell id="0" />
        <mxCell id="1" parent="0" />
        <mxCell id="Sxz-JTNLIh5JDEGqnIZ3-5" value="" style="shape=note;whiteSpace=wrap;html=1;backgroundOutline=1;darkOpacity=0.05;fillColor=#FFFBD9;size=18;" vertex="1" parent="1">
          <mxGeometry x="60" y="-1130" width="170" height="60" as="geometry" />
        </mxCell>
        <mxCell id="Sxz-JTNLIh5JDEGqnIZ3-9" value="Text" style="text;html=1;strokeColor=none;fillColor=none;align=center;verticalAlign=middle;whiteSpace=wrap;rounded=0;" vertex="1" parent="1">
          <mxGeometry x="270" y="-920" width="60" height="30" as="geometry" />
        </mxCell>
      </root>
    </mxGraphModel>
  </diagram>
</mxfile>
